<svg xmlns="http://www.w3.org/2000/svg" viewBox="0 0 390 844">
  <rect width="390" height="844" fill="#edf8f6"/>
  <rect x="0" y="0" width="390" height="300" fill="#cfeee8"/>
  <circle cx="318" cy="92" r="54" fill="#fff2a3" opacity=".58"/>
  <path d="M0 610 C78 576 145 634 218 596 C292 558 342 570 390 542 L390 844 L0 844 Z" fill="#f7d7d3" opacity=".78"/>
  <rect x="222" y="104" width="110" height="184" rx="8" fill="#f8fdff" stroke="#6aa9a4" stroke-width="3"/>
  <path d="M224 198 H330 M277 106 V286" stroke="#6aa9a4" stroke-width="2" opacity=".45"/>
  <rect x="50" y="384" width="292" height="112" rx="8" fill="#ffffff" opacity=".84"/>
  <rect x="42" y="472" width="308" height="36" rx="8" fill="#50bcad" opacity=".36"/>
  <ellipse cx="196" cy="366" rx="70" ry="24" fill="#ffffff" opacity=".9"/>
  <ellipse cx="196" cy="360" rx="50" ry="16" fill="#ffcf7d" opacity=".42"/>
  <g stroke="#2f8b86" stroke-width="3" opacity=".28" fill="none">
    <path d="M174 316 C160 336 188 338 176 356"/>
    <path d="M200 308 C184 332 216 340 202 360"/>
    <path d="M224 316 C210 336 238 338 226 356"/>
  </g>
</svg>
