<svg xmlns="http://www.w3.org/2000/svg" viewBox="0 0 390 844">
  <rect width="390" height="844" fill="#eef9f1"/>
  <rect x="0" y="0" width="390" height="310" fill="#d8f2ec"/>
  <circle cx="326" cy="96" r="68" fill="#ffcf7d" opacity=".45"/>
  <path d="M0 602 C88 560 159 646 247 606 C312 576 350 590 390 568 L390 844 L0 844 Z" fill="#b8eadf"/>
  <path d="M0 690 C88 648 173 716 260 672 C315 642 350 650 390 632 L390 844 L0 844 Z" fill="#f7d7d3" opacity=".75"/>
  <rect x="42" y="96" width="118" height="178" rx="8" fill="#f8fdff" stroke="#6aa9a4" stroke-width="3"/>
  <path d="M101 98 L101 274 M44 184 L158 184" stroke="#6aa9a4" stroke-width="2" opacity=".55"/>
  <g opacity=".42" fill="#2f8b86">
    <rect x="62" y="126" width="3" height="18" rx="2"/>
    <rect x="82" y="158" width="3" height="22" rx="2"/>
    <rect x="122" y="120" width="3" height="16" rx="2"/>
    <rect x="138" y="194" width="3" height="20" rx="2"/>
  </g>
  <rect x="44" y="360" width="302" height="126" rx="8" fill="#ffffff" opacity=".76"/>
  <ellipse cx="146" cy="420" rx="58" ry="18" fill="#50bcad" opacity=".22"/>
  <ellipse cx="265" cy="423" rx="52" ry="17" fill="#fa7167" opacity=".22"/>
  <path d="M0 0 H390 V844 H0 Z" fill="none"/>
</svg>
