<svg xmlns="http://www.w3.org/2000/svg" viewBox="0 0 390 844">
  <rect width="390" height="844" fill="#f2faee"/>
  <rect x="0" y="0" width="390" height="310" fill="#dcf0cf"/>
  <path d="M0 612 C92 552 158 630 236 584 C304 544 354 570 390 540 L390 844 L0 844 Z" fill="#d7ecff" opacity=".86"/>
  <circle cx="194" cy="136" r="82" fill="#fff2a3" opacity=".48"/>
  <path d="M90 244 L158 160 L224 248 Z" fill="#6ab8ac" opacity=".48"/>
  <path d="M174 252 L248 136 L320 252 Z" fill="#fa7167" opacity=".28"/>
  <rect x="70" y="132" width="250" height="158" rx="8" fill="#ffffff" opacity=".72" stroke="#6aa9a4" stroke-width="2"/>
  <path d="M88 258 C132 194 164 248 196 204 C226 164 276 218 302 160" fill="none" stroke="#2f8b86" stroke-width="4" opacity=".42"/>
  <rect x="58" y="340" width="274" height="108" rx="8" fill="#ffffff" opacity=".75"/>
  <circle cx="116" cy="396" r="22" fill="#50bcad" opacity=".45"/>
  <circle cx="194" cy="396" r="22" fill="#ffcf7d" opacity=".48"/>
  <circle cx="272" cy="396" r="22" fill="#fa7167" opacity=".38"/>
</svg>
